<svg width="36" height="36" viewBox="0 0 36 36" fill="none" xmlns="http://www.w3.org/2000/svg">
<rect width="36" height="36" rx="18" fill="#425CD9"/>
<path d="M26 18C25.9935 17.2985 25.7109 16.6279 25.2133 16.1333L19.4933 10.4C19.2435 10.1517 18.9056 10.0123 18.5533 10.0123C18.2011 10.0123 17.8632 10.1517 17.6133 10.4C17.4884 10.5239 17.3892 10.6714 17.3215 10.8339C17.2538 10.9964 17.2189 11.1706 17.2189 11.3467C17.2189 11.5227 17.2538 11.6969 17.3215 11.8594C17.3892 12.0219 17.4884 12.1694 17.6133 12.2933L22 16.6667H8.66668C8.31305 16.6667 7.97392 16.8071 7.72387 17.0572C7.47382 17.3072 7.33334 17.6464 7.33334 18C7.33334 18.3536 7.47382 18.6928 7.72387 18.9428C7.97392 19.1928 8.31305 19.3333 8.66668 19.3333H22L17.6133 23.72C17.3623 23.9693 17.2205 24.3081 17.2193 24.6619C17.218 25.0158 17.3574 25.3556 17.6067 25.6067C17.856 25.8577 18.1948 25.9995 18.5486 26.0007C18.9024 26.002 19.2423 25.8626 19.4933 25.6133L25.2133 19.88C25.7141 19.3822 25.997 18.7061 26 18Z" fill="white"/>
</svg>
